<svg width="58" height="58" viewBox="0 0 58 58" fill="none" xmlns="http://www.w3.org/2000/svg">
<g filter="url(#filter0_d_20000879_3269)">
<path d="M23.1919 15.1078C22.8565 14.9641 22.4768 14.9641 22.1414 15.1078L12.8081 19.1078C12.3179 19.3179 12 19.8 12 20.3333C12 20.8667 12.3179 21.3488 12.8081 21.5589L16.3338 23.0699C16.462 22.9246 16.6228 22.8063 16.8081 22.7269L22.1414 20.4412C22.8183 20.1511 23.6021 20.4646 23.8922 21.1415C24.1823 21.8183 23.8687 22.6021 23.1919 22.8922L19.5556 24.4506L22.1414 25.5589C22.4768 25.7026 22.8565 25.7026 23.1919 25.5589L32.5252 21.5589C33.0155 21.3488 33.3333 20.8667 33.3333 20.3333C33.3333 19.8 33.0155 19.3179 32.5252 19.1078L23.1919 15.1078Z" fill="#787878"/>
<path d="M13.7467 24.8623L16 25.828V31.2969C15.543 31.1932 15.0761 31.1156 14.6009 31.0658C13.9746 31.0002 13.4796 30.5052 13.4139 29.8788C13.3606 29.3704 13.3333 28.8547 13.3333 28.3331C13.3333 27.1377 13.4765 25.9753 13.7467 24.8623Z" fill="#787878"/>
<path d="M21.7333 34.43C20.8361 33.5505 19.8022 32.8112 18.6667 32.2468V26.9709L21.091 28.0098C22.0972 28.4411 23.2361 28.4411 24.2423 28.0098L31.5866 24.8623C31.8568 25.9753 32 27.1377 32 28.3331C32 28.8547 31.9727 29.3704 31.9194 29.8788C31.8537 30.5052 31.3587 31.0002 30.7324 31.0658C27.9686 31.3556 25.4832 32.5839 23.6001 34.43C23.0816 34.9383 22.2517 34.9383 21.7333 34.43Z" fill="#787878"/>
<path d="M17.3333 36.3333C18.0697 36.3333 18.6667 35.7363 18.6667 35V32.2468C17.8285 31.8302 16.9349 31.5089 16 31.2969V35C16 35.7363 16.597 36.3333 17.3333 36.3333Z" fill="#787878"/>
<rect x="4" width="50" height="50" rx="5" fill="url(#paint0_linear_20000879_3269)"/>
<path d="M21.1408 26.6572L16.7646 32.2213L20.8792 33.0766L22.5235 38.2066L26.7191 31.2595" stroke="#050C28" stroke-linecap="round" stroke-linejoin="round"/>
<path d="M37.8742 26.6572L42.235 32.2213L38.1204 33.0766L36.4746 38.2066L32.2974 31.3517" stroke="#050C28" stroke-linecap="round" stroke-linejoin="round"/>
<path d="M19.9614 21.7085C19.9614 23.6694 20.5209 25.5862 21.5691 27.2165C22.6174 28.8469 24.1073 30.1175 25.8503 30.8678C27.5934 31.618 29.5115 31.8141 31.3618 31.4314C33.2122 31.0486 34.9117 30.1041 36.2456 28.7173C37.5794 27.3306 38.4876 25.5639 38.8553 23.6406C39.223 21.7173 39.0337 19.724 38.3113 17.9125C37.5889 16.1011 36.3658 14.5531 34.7969 13.4641C33.2279 12.3752 31.3834 11.7943 29.4968 11.7949C26.9676 11.7958 24.5422 12.8406 22.7541 14.6997C20.9659 16.5587 19.9614 19.0798 19.9614 21.7085V21.7085Z" stroke="#050C28" stroke-linecap="round" stroke-linejoin="round"/>
<path d="M29.4955 15.6833L31.1138 19.0917L34.7327 19.637L32.1141 22.2903L32.7321 26.0357L29.4955 24.2663L26.2604 26.0357L26.8784 22.2903L24.2598 19.637L27.8787 19.0917L29.4955 15.6833Z" stroke="#050C28" stroke-linecap="round" stroke-linejoin="round"/>
</g>
<defs>
<filter id="filter0_d_20000879_3269" x="0" y="0" width="58" height="58" filterUnits="userSpaceOnUse" color-interpolation-filters="sRGB">
<feFlood flood-opacity="0" result="BackgroundImageFix"/>
<feColorMatrix in="SourceAlpha" type="matrix" values="0 0 0 0 0 0 0 0 0 0 0 0 0 0 0 0 0 0 127 0" result="hardAlpha"/>
<feOffset dy="4"/>
<feGaussianBlur stdDeviation="2"/>
<feComposite in2="hardAlpha" operator="out"/>
<feColorMatrix type="matrix" values="0 0 0 0 0 0 0 0 0 0 0 0 0 0 0 0 0 0 0.25 0"/>
<feBlend mode="normal" in2="BackgroundImageFix" result="effect1_dropShadow_20000879_3269"/>
<feBlend mode="normal" in="SourceGraphic" in2="effect1_dropShadow_20000879_3269" result="shape"/>
</filter>
<linearGradient id="paint0_linear_20000879_3269" x1="29" y1="0" x2="29" y2="50" gradientUnits="userSpaceOnUse">
<stop stop-color="#84EE9A"/>
<stop offset="1" stop-color="#3CE66E"/>
</linearGradient>
</defs>
</svg>
