<svg width="40" height="31" viewBox="0 0 40 31" fill="none" xmlns="http://www.w3.org/2000/svg">
<path d="M24.6649 30.6382C23.0206 26.2009 22.1984 21.7636 22.1984 17.3264C22.1984 12.1848 23.5925 7.99402 26.3807 4.75411C29.0974 1.58463 33.1367 -0.000110026 38.4987 -0.000110495L38.4987 7.50099C34.6381 7.50099 32.7078 10.0014 32.7078 15.0021L32.7078 16.4812L40 16.4812L40 30.6382L24.6649 30.6382ZM2.46649 30.6382C0.822162 26.2009 -7.75837e-07 21.7636 -1.16376e-06 17.3264C-1.61325e-06 12.1848 1.3941 7.99402 4.18231 4.75411C6.89901 1.58463 10.9383 -0.000108086 16.3003 -0.000108554L16.3003 7.50099C12.5112 7.50099 10.6166 10.0014 10.6166 15.0021L10.6166 16.4812L17.8016 16.4812L17.8016 30.6382L2.46649 30.6382Z" fill="url(#paint0_linear_20000836_3266)"/>
<defs>
<linearGradient id="paint0_linear_20000836_3266" x1="40" y1="15.319" x2="-1.51089e-06" y2="15.319" gradientUnits="userSpaceOnUse">
<stop stop-color="#6835F8"/>
<stop offset="1" stop-color="#AA00FF"/>
</linearGradient>
</defs>
</svg>
